<svg width="36" height="20" viewBox="0 0 36 20" fill="none" xmlns="http://www.w3.org/2000/svg">
<path d="M21.5997 7.70577L22.4221 9.61751C22.9459 9.3774 24.6475 8.7496 24.1813 7.66755C23.6962 6.54084 22.1233 7.46695 21.5997 7.70577ZM22.8383 10.5823L23.7454 12.6903C24.3742 12.4022 26.4065 11.6331 25.8942 10.4448C25.36 9.2036 23.4678 10.2936 22.8383 10.5823Z" fill="#10D07D"/>
<path d="M19.6568 1.60143C15.1729 3.66478 13.1377 9.0645 15.1096 13.6638C17.0797 18.2623 22.3128 20.3184 26.7944 18.258C31.2782 16.1947 33.3161 10.794 31.3435 6.19521C29.3728 1.59605 24.1397 -0.46007 19.6568 1.60143ZM25.5468 6.41965C25.9739 7.20076 25.8501 7.84411 25.4378 8.36718C26.407 8.17916 27.1846 8.46145 27.5906 9.70857C28.0934 11.2566 27.1844 12.1524 25.6787 12.9542L26.3483 14.5171L25.431 14.9393L24.7706 13.3991C24.5257 13.5116 24.2798 13.6216 24.0328 13.729L24.6972 15.2775L23.7796 15.6977L23.1083 14.1328C22.8921 14.2303 22.6717 14.3267 22.4499 14.4288L21.2544 14.98L20.9556 13.7703C20.9556 13.7703 21.6393 13.4688 21.6229 13.4636C21.8829 13.3434 21.8694 13.1211 21.8334 12.993L20.7769 10.5232L20.8734 10.4791C20.8392 10.4893 20.8058 10.5019 20.7733 10.5169L20.0179 8.75404C19.8999 8.5787 19.6849 8.41218 19.3124 8.5835C19.319 8.56545 18.6456 8.89093 18.6456 8.89093L18.2134 7.8853L19.481 7.30265L19.4831 7.30681C19.6733 7.21968 19.8668 7.12646 20.0638 7.03041L19.4005 5.48332L20.3185 5.06052L20.9686 6.57668C21.2113 6.45894 21.4566 6.34023 21.6978 6.22947L21.0522 4.72233L21.9702 4.29953L22.6335 5.84662C23.8648 5.40982 24.9636 5.35304 25.5468 6.41965Z" fill="#10D07D"/>
<path d="M8.93798 7.02393L8.44645 9.05296C9.00268 9.19564 10.719 9.77933 10.9967 8.63047C11.286 7.43436 9.49332 7.16753 8.93798 7.02393ZM8.19933 10.0777L7.65747 12.3152C8.32513 12.4866 10.3865 13.1685 10.6912 11.9066C11.0102 10.5891 8.86789 10.2491 8.19933 10.0777Z" fill="#FE9D3A"/>
<path d="M11.177 0.975249C6.35396 -0.226482 1.47153 2.70808 0.269601 7.53031C-0.933227 12.3507 2.00182 17.2342 6.82123 18.4368C11.6442 19.6385 16.5294 16.7049 17.7304 11.8826C18.9332 7.06132 15.9982 2.17788 11.177 0.975249ZM12.9695 8.42418C12.839 9.30095 12.3519 9.72493 11.7073 9.87436C12.5941 10.3352 13.0442 11.0428 12.6157 12.2697C12.0827 13.7919 10.8168 13.9206 9.13145 13.602L8.7227 15.2403L7.73595 14.9945L8.1384 13.3796C7.87512 13.3139 7.61251 13.2455 7.35062 13.1744L6.94637 14.7983L5.96052 14.5508L6.36927 12.9097C6.13789 12.8503 5.9038 12.7873 5.66522 12.7279L4.37866 12.4083L4.87024 11.2777C4.87024 11.2777 5.59769 11.4713 5.58779 11.4569C5.86779 11.5262 5.99113 11.3443 6.03975 11.2219L6.68708 8.63392L6.79062 8.66003C6.75722 8.64656 6.72292 8.63543 6.68798 8.62672L7.14895 6.77866C7.16065 6.56802 7.08952 6.30337 6.68888 6.20345C6.70509 6.19355 5.97133 6.02522 5.97133 6.02522L6.23332 4.97022L7.59641 5.31048L7.5955 5.31498C7.79988 5.36629 8.01055 5.4149 8.22573 5.46351L8.62997 3.8414L9.61762 4.08715L9.22148 5.67685C9.48618 5.73716 9.75357 5.79838 10.0129 5.86319L10.4072 4.28338L11.3949 4.52913L10.9906 6.15124C12.2367 6.58243 13.1478 7.22695 12.9695 8.42418Z" fill="#FE9D3A"/>
</svg>
