<svg width="11" height="10" viewBox="0 0 11 10" fill="none" xmlns="http://www.w3.org/2000/svg">
<path d="M5.5 9.375C4.33968 9.375 3.22688 8.91406 2.40641 8.09359C1.58594 7.27312 1.125 6.16032 1.125 5C1.125 3.83968 1.58594 2.72688 2.40641 1.90641C3.22688 1.08594 4.33968 0.625 5.5 0.625C6.66032 0.625 7.77312 1.08594 8.59359 1.90641C9.41406 2.72688 9.875 3.83968 9.875 5C9.875 6.16032 9.41406 7.27312 8.59359 8.09359C7.77312 8.91406 6.66032 9.375 5.5 9.375ZM5.5 10C6.82608 10 8.09785 9.47322 9.03553 8.53553C9.97322 7.59785 10.5 6.32608 10.5 5C10.5 3.67392 9.97322 2.40215 9.03553 1.46447C8.09785 0.526784 6.82608 0 5.5 0C4.17392 0 2.90215 0.526784 1.96447 1.46447C1.02678 2.40215 0.5 3.67392 0.5 5C0.5 6.32608 1.02678 7.59785 1.96447 8.53553C2.90215 9.47322 4.17392 10 5.5 10Z" fill="white"/>
<path d="M6.08125 4.1175L4.65 4.29688L4.59875 4.53438L4.88 4.58625C5.06375 4.63 5.1 4.69625 5.06 4.87937L4.59875 7.04688C4.4775 7.6075 4.66438 7.87125 5.10375 7.87125C5.44438 7.87125 5.84 7.71375 6.01938 7.4975L6.07438 7.2375C5.94938 7.3475 5.76688 7.39125 5.64563 7.39125C5.47375 7.39125 5.41125 7.27063 5.45563 7.05813L6.08125 4.1175ZM6.125 2.8125C6.125 2.97826 6.05915 3.13723 5.94194 3.25444C5.82473 3.37165 5.66576 3.4375 5.5 3.4375C5.33424 3.4375 5.17527 3.37165 5.05806 3.25444C4.94085 3.13723 4.875 2.97826 4.875 2.8125C4.875 2.64674 4.94085 2.48777 5.05806 2.37056C5.17527 2.25335 5.33424 2.1875 5.5 2.1875C5.66576 2.1875 5.82473 2.25335 5.94194 2.37056C6.05915 2.48777 6.125 2.64674 6.125 2.8125Z" fill="white"/>
</svg>
