<svg width="18" height="18" viewBox="0 0 18 18" fill="none" xmlns="http://www.w3.org/2000/svg">
<path d="M9 18C4.02919 18 0 13.9708 0 9C0 4.02919 4.02919 0 9 0C13.9708 0 18 4.02919 18 9C18 13.9708 13.9708 18 9 18ZM8.96175 7.26075L6.58969 6.91313L6.45637 7.82156L8.77387 8.16075C8.74907 8.29454 8.72581 8.42861 8.70413 8.56294L8.60513 9.16087L6.30112 8.82337L6.17625 9.73294L8.4465 10.0659C7.93519 12.5938 7.53075 13.6884 7.02056 14.2566C6.96938 14.3162 6.80794 14.4051 6.669 14.4214C6.47719 14.4439 6.32025 14.3477 6.20156 14.067C6.1389 13.9065 6.0337 13.7661 5.89725 13.6609C5.75396 13.5531 5.57477 13.5044 5.39663 13.5248C5.28131 13.509 5.06644 13.6659 5.00962 13.8628C4.93313 14.1272 5.1075 14.4084 5.54231 14.6813C6.3945 15.2156 7.21294 15.0508 7.9425 14.4017C8.38069 14.0113 8.7795 13.4224 8.8785 13.1754C9.13444 12.6804 9.49725 11.4283 9.77175 10.2594L12.1528 10.6082L12.2861 9.69975L9.95906 9.35888C9.98422 9.22528 10.0078 9.09139 10.0299 8.95725L10.1284 8.35875L12.4324 8.69625L12.5573 7.78669L10.287 7.45481C10.6301 5.76056 10.8765 4.94325 11.1442 4.49719C11.2213 4.37006 11.2961 4.27331 11.4165 4.14L11.5487 3.99375C11.5993 3.93412 11.7613 3.84525 11.9003 3.82894C12.0915 3.80644 12.249 3.90319 12.3671 4.18331C12.4436 4.36331 12.5471 4.49775 12.672 4.58944C12.834 4.70869 13.0039 4.74188 13.1726 4.72556C13.2879 4.74131 13.5028 4.58437 13.5596 4.38806C13.6361 4.12313 13.4618 3.84244 13.0269 3.56963L12.9521 3.68831L13.0269 3.56963C12.1748 3.03469 11.3563 3.1995 10.6267 3.84919C10.188 4.239 9.78919 4.82906 9.69075 5.07544C9.42356 5.59125 9.171 6.38156 8.96175 7.26075Z" fill="#0890FC"/>
</svg>
