<svg width="47" height="47" viewBox="0 0 47 47" fill="none" xmlns="http://www.w3.org/2000/svg">
<path d="M33.4378 31.16C34.2969 29.3132 34.7797 27.3492 34.856 25.3909L34.9207 23.7732C34.9222 23.719 34.9101 23.6667 34.8857 23.6209C34.8613 23.575 34.8252 23.5371 34.7807 23.5103C34.7361 23.4835 34.6845 23.4688 34.6303 23.4674C34.576 23.466 34.5209 23.4779 34.4696 23.5022L32.9467 24.2395C31.9928 24.7036 30.8416 24.9897 29.5374 25.0879C29.4528 25.0926 29.3974 25.0591 29.3649 25.0308C29.3324 25.0026 29.2933 24.9484 29.2974 24.8643C29.2979 24.789 29.3359 24.7157 29.3953 24.6652C31.3918 22.9848 33.0517 20.4602 34.3294 17.1503C35.3946 14.4042 35.6951 11.698 35.2369 9.10128L34.9002 7.20859C34.8569 6.96044 34.5403 6.8892 34.3497 7.08456L32.8953 8.57059C31.9014 9.58595 30.8858 10.3382 29.8857 10.7976C28.6621 11.3603 27.3765 11.7246 26.0617 11.881C25.1475 11.9891 24.2346 11.9956 23.3403 11.9003C21.1926 11.665 18.9677 11.9239 16.8323 12.6575C14.6855 13.405 12.6901 14.6196 11.0017 16.2065C9.51383 17.6063 8.3215 19.2256 7.45408 21.0261C6.6203 22.761 6.11763 24.6055 5.97385 26.4577C5.83013 28.3262 6.0396 30.1406 6.6066 31.8486C7.19159 33.62 8.1297 35.1982 9.39788 36.5462C10.6661 37.8941 12.1842 38.9266 13.9135 39.6214C15.5779 40.2915 17.3924 40.6176 19.2559 40.5814C21.1297 40.5518 22.9868 40.1634 24.7676 39.4348C26.6131 38.6814 28.3234 37.5765 29.7944 36.1874C31.3327 34.74 32.56 33.0505 33.4378 31.16Z" fill="#F43C42"/>
<path d="M7.70006 31V23.8H8.74506V26.905H12.3451V23.8H13.3951V31H12.3451V27.89H8.74506V31H7.70006ZM17.8047 31.15C17.0847 31.15 16.4713 30.9933 15.9647 30.68C15.458 30.3633 15.0697 29.9233 14.7997 29.36C14.533 28.7967 14.3997 28.1433 14.3997 27.4C14.3997 26.6567 14.533 26.0033 14.7997 25.44C15.0697 24.8767 15.458 24.4383 15.9647 24.125C16.4713 23.8083 17.0847 23.65 17.8047 23.65C18.5213 23.65 19.133 23.8083 19.6397 24.125C20.1497 24.4383 20.538 24.8767 20.8047 25.44C21.0713 26.0033 21.2047 26.6567 21.2047 27.4C21.2047 28.1433 21.0713 28.7967 20.8047 29.36C20.538 29.9233 20.1497 30.3633 19.6397 30.68C19.133 30.9933 18.5213 31.15 17.8047 31.15ZM17.8047 30.155C18.3147 30.1617 18.738 30.05 19.0747 29.82C19.4147 29.5867 19.6697 29.2633 19.8397 28.85C20.0097 28.4333 20.0947 27.95 20.0947 27.4C20.0947 26.85 20.0097 26.37 19.8397 25.96C19.6697 25.5467 19.4147 25.225 19.0747 24.995C18.738 24.765 18.3147 24.6483 17.8047 24.645C17.2947 24.6383 16.8697 24.75 16.5297 24.98C16.193 25.21 15.9397 25.5333 15.7697 25.95C15.5997 26.3667 15.513 26.85 15.5097 27.4C15.5063 27.95 15.5897 28.4317 15.7597 28.845C15.9297 29.255 16.1847 29.575 16.5247 29.805C16.868 30.035 17.2947 30.1517 17.8047 30.155ZM23.8017 31V24.785H21.4067V23.8H27.2417V24.785H24.8467V31H23.8017Z" fill="white"/>
</svg>
