<svg width="24" height="24" viewBox="0 0 24 24" fill="none" xmlns="http://www.w3.org/2000/svg">
<path d="M11.25 1.5H12.75V5.25H11.25V1.5Z" fill="white"/>
<path d="M16.2653 6.67505L18.8948 4.0448L19.9553 5.10605L17.3258 7.73555L16.2653 6.67505Z" fill="white"/>
<path d="M18.75 11.25H22.5V12.75H18.75V11.25Z" fill="white"/>
<path d="M16.2653 17.325L17.3258 16.2645L19.9553 18.894L18.8948 19.9553L16.2653 17.325Z" fill="white"/>
<path d="M11.25 18.75H12.75V22.5H11.25V18.75Z" fill="white"/>
<path d="M4.0455 18.894L6.675 16.2645L7.7355 17.3258L5.106 19.9553L4.0455 18.894Z" fill="white"/>
<path d="M1.5 11.25H5.25V12.75H1.5V11.25Z" fill="white"/>
<path d="M4.0455 5.10605L5.106 4.0448L7.7355 6.67505L6.675 7.73555L4.0455 5.10605Z" fill="white"/>
<path d="M12 7.5C11.11 7.5 10.24 7.76392 9.49994 8.25839C8.75991 8.75285 8.18314 9.45566 7.84254 10.2779C7.50195 11.1002 7.41283 12.005 7.58647 12.8779C7.7601 13.7508 8.18869 14.5526 8.81802 15.182C9.44736 15.8113 10.2492 16.2399 11.1221 16.4135C11.995 16.5872 12.8998 16.4981 13.7221 16.1575C14.5443 15.8169 15.2471 15.2401 15.7416 14.5001C16.2361 13.76 16.5 12.89 16.5 12C16.5 10.8065 16.0259 9.66193 15.182 8.81802C14.3381 7.97411 13.1935 7.5 12 7.5Z" fill="white"/>
</svg>
