<svg width="24" height="20" viewBox="0 0 24 20" fill="none" xmlns="http://www.w3.org/2000/svg">
<path d="M3 3.25H4.5V4.75H3V3.25Z" fill="white"/>
<path d="M6 3.25H16.5V4.75H6V3.25Z" fill="white"/>
<path d="M3 9.25H4.5V10.75H3V9.25Z" fill="white"/>
<path d="M6 9.25H16.5V10.75H6V9.25Z" fill="white"/>
<path d="M22.5 0.25H1.5C1.10218 0.25 0.720644 0.408035 0.43934 0.68934C0.158035 0.970644 0 1.35218 0 1.75V18.25C0 18.6478 0.158035 19.0294 0.43934 19.3107C0.720644 19.592 1.10218 19.75 1.5 19.75H22.5C22.8978 19.75 23.2794 19.592 23.5607 19.3107C23.842 19.0294 24 18.6478 24 18.25V1.75C24 1.35218 23.842 0.970644 23.5607 0.68934C23.2794 0.408035 22.8978 0.25 22.5 0.25ZM1.5 1.75H22.5V6.25H1.5V1.75ZM1.5 7.75H22.5V12.25H1.5V7.75ZM1.5 18.25V13.75H22.5V18.25H1.5Z" fill="white"/>
<path d="M3 15.25H4.5V16.75H3V15.25Z" fill="white"/>
<path d="M6 15.25H16.5V16.75H6V15.25Z" fill="white"/>
</svg>
