<svg width="26" height="22" viewBox="0 0 26 22" fill="none" xmlns="http://www.w3.org/2000/svg">
<path d="M10.8182 5.44444H15.1818M1.54545 13.7778C1.54545 13.7778 5.90909 3.22222 6.45455 2.11111C7 1 8.09091 1 8.63636 1C9.18182 1 10.8182 1 10.8182 3.22222V15.4444H15.1818V3.22222C15.1818 1 16.8182 1 17.3636 1C17.9091 1 19 1 19.5455 2.11111C20.0909 3.22222 24.4545 13.7778 24.4545 13.7778M20.0909 21C20.7356 21 21.3739 20.8707 21.9695 20.6194C22.5651 20.3681 23.1063 19.9998 23.5622 19.5355C24.018 19.0712 24.3796 18.52 24.6263 17.9134C24.873 17.3068 25 16.6566 25 16C25 15.3434 24.873 14.6932 24.6263 14.0866C24.3796 13.48 24.018 12.9288 23.5622 12.4645C23.1063 12.0002 22.5651 11.6319 21.9695 11.3806C21.3739 11.1293 20.7356 11 20.0909 11C18.7889 11 17.5403 11.5268 16.6197 12.4645C15.699 13.4021 15.1818 14.6739 15.1818 16C15.1818 17.3261 15.699 18.5979 16.6197 19.5355C17.5403 20.4732 18.7889 21 20.0909 21ZM5.90909 21C5.26442 21 4.62606 20.8707 4.03046 20.6194C3.43486 20.3681 2.89369 19.9998 2.43784 19.5355C1.98199 19.0712 1.62039 18.52 1.37368 17.9134C1.12698 17.3068 1 16.6566 1 16C1 15.3434 1.12698 14.6932 1.37368 14.0866C1.62039 13.48 1.98199 12.9288 2.43784 12.4645C2.89369 12.0002 3.43486 11.6319 4.03046 11.3806C4.62606 11.1293 5.26442 11 5.90909 11C7.21106 11 8.45971 11.5268 9.38034 12.4645C10.301 13.4021 10.8182 14.6739 10.8182 16C10.8182 17.3261 10.301 18.5979 9.38034 19.5355C8.45971 20.4732 7.21106 21 5.90909 21Z" stroke="white" stroke-width="1.2"/>
</svg>
